# xmcd CD database file
#
# Track frame offsets:
#	150
#	19390
#	39408
#	62293
#	78505
#	105510
#	122003
#	140080
#	163250
#	177665
#
# Disc length: 2737 seconds
#
# Revision: 0
# Processed by: cddbd v1.4b42PL0 Copyright (c) Steve Scherf et al.
# Submitted via: Feurio! 1.61 - http://www.feurio.com
#
DISCID=860aaf0a
DTITLE=Pointer Sisters - Retrospect (Their Fabulous Recordings 1973-1975)
DYEAR=1900
DGENRE=
TTITLE0=Yes We Can Can
TTITLE1=Sleeping Alone
TTITLE2=Fairytale
TTITLE3=Easy Days
TTITLE4=Chainey Do
TTITLE5=That's A Plenty - Surfait,USA
TTITLE6=Old Songs
TTITLE7=Salt Peanuts
TTITLE8=Cloudburst
TTITLE9=I Ain't Got Nothin' But The Blues (Medley)
EXTD=
EXTT0=
EXTT1=
EXTT2=
EXTT3=
EXTT4=
EXTT5=
EXTT6=
EXTT7=
EXTT8=
EXTT9=
PLAYORDER=
